<svg width="221" height="100" viewBox="0 0 221 100" fill="none" xmlns="http://www.w3.org/2000/svg">
<circle cx="50" cy="50" r="28.5" stroke="url(#paint0_linear)" stroke-width="3"/>
<mask id="mask0" mask-type="alpha" maskUnits="userSpaceOnUse" x="27" y="39" width="46" height="22">
<line x1="28.5" y1="47.5" x2="28.5" y2="52.5" stroke="black" stroke-width="3" stroke-linecap="round"/>
<line x1="71.5" y1="47.5" x2="71.5" y2="52.5" stroke="black" stroke-width="3" stroke-linecap="round"/>
<line x1="34.5" y1="47.5" x2="34.5" y2="52.5" stroke="black" stroke-width="3" stroke-linecap="round"/>
<line x1="65.5" y1="47.5" x2="65.5" y2="52.5" stroke="black" stroke-width="3" stroke-linecap="round"/>
<line x1="40.5" y1="44.5" x2="40.5" y2="55.5" stroke="black" stroke-width="3" stroke-linecap="round"/>
<line x1="59.5" y1="44.5" x2="59.5" y2="55.5" stroke="black" stroke-width="3" stroke-linecap="round"/>
<line x1="46.5" y1="40.5" x2="46.5" y2="59.5" stroke="black" stroke-width="3" stroke-linecap="round"/>
<line x1="53.5" y1="40.5" x2="53.5" y2="59.5" stroke="black" stroke-width="3" stroke-linecap="round"/>
</mask>
<g mask="url(#mask0)">
<rect x="24" y="39" width="52" height="22" fill="url(#paint1_linear)"/>
</g>
<mask id="mask1" mask-type="alpha" maskUnits="userSpaceOnUse" x="101" y="36" width="117" height="24">
<path d="M115.18 38.09V40.31H109.48V59H106.75V40.31H101.02V38.09H115.18ZM121.27 45.23C121.75 44.29 122.43 43.56 123.31 43.04C124.21 42.52 125.3 42.26 126.58 42.26V45.08H125.86C122.8 45.08 121.27 46.74 121.27 50.06V59H118.54V42.56H121.27V45.23ZM128.712 50.72C128.712 49.04 129.052 47.57 129.732 46.31C130.412 45.03 131.342 44.04 132.522 43.34C133.722 42.64 135.052 42.29 136.512 42.29C137.952 42.29 139.202 42.6 140.262 43.22C141.322 43.84 142.112 44.62 142.632 45.56V42.56H145.392V59H142.632V55.94C142.092 56.9 141.282 57.7 140.202 58.34C139.142 58.96 137.902 59.27 136.482 59.27C135.022 59.27 133.702 58.91 132.522 58.19C131.342 57.47 130.412 56.46 129.732 55.16C129.052 53.86 128.712 52.38 128.712 50.72ZM142.632 50.75C142.632 49.51 142.382 48.43 141.882 47.51C141.382 46.59 140.702 45.89 139.842 45.41C139.002 44.91 138.072 44.66 137.052 44.66C136.032 44.66 135.102 44.9 134.262 45.38C133.422 45.86 132.752 46.56 132.252 47.48C131.752 48.4 131.502 49.48 131.502 50.72C131.502 51.98 131.752 53.08 132.252 54.02C132.752 54.94 133.422 55.65 134.262 56.15C135.102 56.63 136.032 56.87 137.052 56.87C138.072 56.87 139.002 56.63 139.842 56.15C140.702 55.65 141.382 54.94 141.882 54.02C142.382 53.08 142.632 51.99 142.632 50.75ZM148.985 50.75C148.985 49.05 149.325 47.57 150.005 46.31C150.685 45.03 151.625 44.04 152.825 43.34C154.045 42.64 155.435 42.29 156.995 42.29C159.015 42.29 160.675 42.78 161.975 43.76C163.295 44.74 164.165 46.1 164.585 47.84H161.645C161.365 46.84 160.815 46.05 159.995 45.47C159.195 44.89 158.195 44.6 156.995 44.6C155.435 44.6 154.175 45.14 153.215 46.22C152.255 47.28 151.775 48.79 151.775 50.75C151.775 52.73 152.255 54.26 153.215 55.34C154.175 56.42 155.435 56.96 156.995 56.96C158.195 56.96 159.195 56.68 159.995 56.12C160.795 55.56 161.345 54.76 161.645 53.72H164.585C164.145 55.4 163.265 56.75 161.945 57.77C160.625 58.77 158.975 59.27 156.995 59.27C155.435 59.27 154.045 58.92 152.825 58.22C151.625 57.52 150.685 56.53 150.005 55.25C149.325 53.97 148.985 52.47 148.985 50.75ZM177.408 59L170.958 51.74V59H168.228V36.8H170.958V49.85L177.288 42.56H181.098L173.358 50.75L181.128 59H177.408ZM198.667 50.15C198.667 50.67 198.637 51.22 198.577 51.8H185.437C185.537 53.42 186.087 54.69 187.087 55.61C188.107 56.51 189.337 56.96 190.777 56.96C191.957 56.96 192.937 56.69 193.717 56.15C194.517 55.59 195.077 54.85 195.397 53.93H198.337C197.897 55.51 197.017 56.8 195.697 57.8C194.377 58.78 192.737 59.27 190.777 59.27C189.217 59.27 187.817 58.92 186.577 58.22C185.357 57.52 184.397 56.53 183.697 55.25C182.997 53.95 182.647 52.45 182.647 50.75C182.647 49.05 182.987 47.56 183.667 46.28C184.347 45 185.297 44.02 186.517 43.34C187.757 42.64 189.177 42.29 190.777 42.29C192.337 42.29 193.717 42.63 194.917 43.31C196.117 43.99 197.037 44.93 197.677 46.13C198.337 47.31 198.667 48.65 198.667 50.15ZM195.847 49.58C195.847 48.54 195.617 47.65 195.157 46.91C194.697 46.15 194.067 45.58 193.267 45.2C192.487 44.8 191.617 44.6 190.657 44.6C189.277 44.6 188.097 45.04 187.117 45.92C186.157 46.8 185.607 48.02 185.467 49.58H195.847ZM201.251 50.72C201.251 49.04 201.591 47.57 202.271 46.31C202.951 45.03 203.881 44.04 205.061 43.34C206.261 42.64 207.601 42.29 209.081 42.29C210.361 42.29 211.551 42.59 212.651 43.19C213.751 43.77 214.591 44.54 215.171 45.5V36.8H217.931V59H215.171V55.91C214.631 56.89 213.831 57.7 212.771 58.34C211.711 58.96 210.471 59.27 209.051 59.27C207.591 59.27 206.261 58.91 205.061 58.19C203.881 57.47 202.951 56.46 202.271 55.16C201.591 53.86 201.251 52.38 201.251 50.72ZM215.171 50.75C215.171 49.51 214.921 48.43 214.421 47.51C213.921 46.59 213.241 45.89 212.381 45.41C211.541 44.91 210.611 44.66 209.591 44.66C208.571 44.66 207.641 44.9 206.801 45.38C205.961 45.86 205.291 46.56 204.791 47.48C204.291 48.4 204.041 49.48 204.041 50.72C204.041 51.98 204.291 53.08 204.791 54.02C205.291 54.94 205.961 55.65 206.801 56.15C207.641 56.63 208.571 56.87 209.591 56.87C210.611 56.87 211.541 56.63 212.381 56.15C213.241 55.65 213.921 54.94 214.421 54.02C214.921 53.08 215.171 51.99 215.171 50.75Z" fill="white"/>
</mask>
<g mask="url(#mask1)">
<rect x="94" y="37" width="131" height="24" fill="url(#paint2_linear)"/>
</g>
<defs>
<linearGradient id="paint0_linear" x1="50" y1="20" x2="50" y2="80" gradientUnits="userSpaceOnUse">
<stop stop-color="#4C79EB"/>
<stop offset="1" stop-color="#BC3A80"/>
</linearGradient>
<linearGradient id="paint1_linear" x1="50" y1="39" x2="50" y2="61" gradientUnits="userSpaceOnUse">
<stop stop-color="#5376E6"/>
<stop offset="1" stop-color="#BB3B82"/>
</linearGradient>
<linearGradient id="paint2_linear" x1="169.5" y1="37" x2="169.5" y2="61" gradientUnits="userSpaceOnUse">
<stop stop-color="#4E78EA"/>
<stop offset="1" stop-color="#BC3B81"/>
</linearGradient>
</defs>
</svg>
