<svg width="198" height="60" viewBox="0 0 198 60" fill="none" xmlns="http://www.w3.org/2000/svg">
<line x1="8.5" y1="27.5" x2="8.5" y2="32.5" stroke="white" stroke-width="3" stroke-linecap="round"/>
<line x1="51.5" y1="27.5" x2="51.5" y2="32.5" stroke="white" stroke-width="3" stroke-linecap="round"/>
<line x1="14.5" y1="27.5" x2="14.5" y2="32.5" stroke="white" stroke-width="3" stroke-linecap="round"/>
<line x1="45.5" y1="27.5" x2="45.5" y2="32.5" stroke="white" stroke-width="3" stroke-linecap="round"/>
<line x1="20.5" y1="24.5" x2="20.5" y2="35.5" stroke="white" stroke-width="3" stroke-linecap="round"/>
<line x1="39.5" y1="24.5" x2="39.5" y2="35.5" stroke="white" stroke-width="3" stroke-linecap="round"/>
<line x1="26.5" y1="20.5" x2="26.5" y2="39.5" stroke="white" stroke-width="3" stroke-linecap="round"/>
<line x1="33.5" y1="20.5" x2="33.5" y2="39.5" stroke="white" stroke-width="3" stroke-linecap="round"/>
<circle cx="30" cy="30" r="28.5" stroke="white" stroke-width="3"/>
<mask id="mask0" mask-type="alpha" maskUnits="userSpaceOnUse" x="81" y="16" width="117" height="24">
<path d="M95.18 18.09V20.31H89.48V39H86.75V20.31H81.02V18.09H95.18ZM101.27 25.23C101.75 24.29 102.43 23.56 103.31 23.04C104.21 22.52 105.3 22.26 106.58 22.26V25.08H105.86C102.8 25.08 101.27 26.74 101.27 30.06V39H98.5405V22.56H101.27V25.23ZM108.712 30.72C108.712 29.04 109.052 27.57 109.732 26.31C110.412 25.03 111.342 24.04 112.522 23.34C113.722 22.64 115.052 22.29 116.512 22.29C117.952 22.29 119.202 22.6 120.262 23.22C121.322 23.84 122.112 24.62 122.632 25.56V22.56H125.392V39H122.632V35.94C122.092 36.9 121.282 37.7 120.202 38.34C119.142 38.96 117.902 39.27 116.482 39.27C115.022 39.27 113.702 38.91 112.522 38.19C111.342 37.47 110.412 36.46 109.732 35.16C109.052 33.86 108.712 32.38 108.712 30.72ZM122.632 30.75C122.632 29.51 122.382 28.43 121.882 27.51C121.382 26.59 120.702 25.89 119.842 25.41C119.002 24.91 118.072 24.66 117.052 24.66C116.032 24.66 115.102 24.9 114.262 25.38C113.422 25.86 112.752 26.56 112.252 27.48C111.752 28.4 111.502 29.48 111.502 30.72C111.502 31.98 111.752 33.08 112.252 34.02C112.752 34.94 113.422 35.65 114.262 36.15C115.102 36.63 116.032 36.87 117.052 36.87C118.072 36.87 119.002 36.63 119.842 36.15C120.702 35.65 121.382 34.94 121.882 34.02C122.382 33.08 122.632 31.99 122.632 30.75ZM128.985 30.75C128.985 29.05 129.325 27.57 130.005 26.31C130.685 25.03 131.625 24.04 132.825 23.34C134.045 22.64 135.435 22.29 136.995 22.29C139.015 22.29 140.675 22.78 141.975 23.76C143.295 24.74 144.165 26.1 144.585 27.84H141.645C141.365 26.84 140.815 26.05 139.995 25.47C139.195 24.89 138.195 24.6 136.995 24.6C135.435 24.6 134.175 25.14 133.215 26.22C132.255 27.28 131.775 28.79 131.775 30.75C131.775 32.73 132.255 34.26 133.215 35.34C134.175 36.42 135.435 36.96 136.995 36.96C138.195 36.96 139.195 36.68 139.995 36.12C140.795 35.56 141.345 34.76 141.645 33.72H144.585C144.145 35.4 143.265 36.75 141.945 37.77C140.625 38.77 138.975 39.27 136.995 39.27C135.435 39.27 134.045 38.92 132.825 38.22C131.625 37.52 130.685 36.53 130.005 35.25C129.325 33.97 128.985 32.47 128.985 30.75ZM157.408 39L150.958 31.74V39H148.228V16.8H150.958V29.85L157.288 22.56H161.098L153.358 30.75L161.128 39H157.408ZM178.667 30.15C178.667 30.67 178.637 31.22 178.577 31.8H165.437C165.537 33.42 166.087 34.69 167.087 35.61C168.107 36.51 169.337 36.96 170.777 36.96C171.957 36.96 172.937 36.69 173.717 36.15C174.517 35.59 175.077 34.85 175.397 33.93H178.337C177.897 35.51 177.017 36.8 175.697 37.8C174.377 38.78 172.737 39.27 170.777 39.27C169.217 39.27 167.817 38.92 166.577 38.22C165.357 37.52 164.397 36.53 163.697 35.25C162.997 33.95 162.647 32.45 162.647 30.75C162.647 29.05 162.987 27.56 163.667 26.28C164.347 25 165.297 24.02 166.517 23.34C167.757 22.64 169.177 22.29 170.777 22.29C172.337 22.29 173.717 22.63 174.917 23.31C176.117 23.99 177.037 24.93 177.677 26.13C178.337 27.31 178.667 28.65 178.667 30.15ZM175.847 29.58C175.847 28.54 175.617 27.65 175.157 26.91C174.697 26.15 174.067 25.58 173.267 25.2C172.487 24.8 171.617 24.6 170.657 24.6C169.277 24.6 168.097 25.04 167.117 25.92C166.157 26.8 165.607 28.02 165.467 29.58H175.847ZM181.251 30.72C181.251 29.04 181.591 27.57 182.271 26.31C182.951 25.03 183.881 24.04 185.061 23.34C186.261 22.64 187.601 22.29 189.081 22.29C190.361 22.29 191.551 22.59 192.651 23.19C193.751 23.77 194.591 24.54 195.171 25.5V16.8H197.931V39H195.171V35.91C194.631 36.89 193.831 37.7 192.771 38.34C191.711 38.96 190.471 39.27 189.051 39.27C187.591 39.27 186.261 38.91 185.061 38.19C183.881 37.47 182.951 36.46 182.271 35.16C181.591 33.86 181.251 32.38 181.251 30.72ZM195.171 30.75C195.171 29.51 194.921 28.43 194.421 27.51C193.921 26.59 193.241 25.89 192.381 25.41C191.541 24.91 190.611 24.66 189.591 24.66C188.571 24.66 187.641 24.9 186.801 25.38C185.961 25.86 185.291 26.56 184.791 27.48C184.291 28.4 184.041 29.48 184.041 30.72C184.041 31.98 184.291 33.08 184.791 34.02C185.291 34.94 185.961 35.65 186.801 36.15C187.641 36.63 188.571 36.87 189.591 36.87C190.611 36.87 191.541 36.63 192.381 36.15C193.241 35.65 193.921 34.94 194.421 34.02C194.921 33.08 195.171 31.99 195.171 30.75Z" fill="white"/>
</mask>
<g mask="url(#mask0)">
<rect x="74" y="17" width="131" height="24" fill="white"/>
</g>
</svg>
